<svg width="164" height="56" viewBox="0 0 164 56" fill="none" xmlns="http://www.w3.org/2000/svg">
<rect y="-0.00195312" width="163.5" height="56" rx="12" fill="#040608"/>
<path d="M43.326 12.998H26.674C22.9881 12.998 20 15.9861 20 19.672V36.324C20 40.01 22.9881 42.998 26.674 42.998H43.326C47.0119 42.998 50 40.01 50 36.324V19.672C50 15.9861 47.0119 12.998 43.326 12.998Z" fill="url(#paint0_linear_696_5155)"/>
<path d="M34.0839 39.262C33.1889 38.942 32.9969 38.507 32.6299 35.958C32.2029 32.995 32.1099 31.161 32.3569 30.58C32.6849 29.81 33.5749 29.373 34.8199 29.368C36.0549 29.363 36.9529 29.804 37.2829 30.58C37.5309 31.16 37.4379 32.995 37.0109 35.958C36.7209 38.028 36.5609 38.551 36.1609 38.903C35.6109 39.39 34.8309 39.525 34.0909 39.263L34.0839 39.262ZM30.2609 36.222C27.1709 34.702 25.1909 32.13 24.4709 28.708C24.2909 27.825 24.2609 25.718 24.4309 24.908C24.8809 22.733 25.7409 21.032 27.1709 19.528C29.2309 17.356 31.8809 16.208 34.8309 16.208C37.7509 16.208 40.3909 17.335 42.4009 19.442C43.9309 21.032 44.7909 22.715 45.2309 24.932C45.3809 25.67 45.3809 27.682 45.2409 28.512C44.7809 31.136 43.3209 33.526 41.1909 35.132C40.4309 35.706 38.5709 36.708 38.2709 36.708C38.1609 36.708 38.1509 36.594 38.2009 36.133C38.2909 35.393 38.3809 35.239 38.8009 35.063C39.4709 34.783 40.6109 33.971 41.3109 33.269C42.5209 32.069 43.4109 30.499 43.8209 28.849C44.0809 27.819 44.0509 25.529 43.7609 24.469C42.8509 21.099 40.1009 18.479 36.7309 17.779C35.7509 17.579 33.9709 17.579 32.9809 17.779C29.5709 18.479 26.7509 21.229 25.8909 24.689C25.6609 25.629 25.6609 27.919 25.8909 28.859C26.4609 31.149 27.9409 33.249 29.8809 34.499C30.2609 34.749 30.7209 35.009 30.9109 35.089C31.3309 35.269 31.4209 35.419 31.5009 36.159C31.5509 36.609 31.5409 36.739 31.4309 36.739C31.3609 36.739 30.8509 36.519 30.3109 36.259L30.2609 36.222ZM30.3009 32.154C29.2609 31.324 28.3409 29.852 27.9609 28.408C27.7309 27.536 27.7309 25.878 27.9709 25.008C28.6009 22.66 30.3309 20.84 32.7309 19.985C33.5509 19.695 35.3709 19.63 36.3809 19.853C39.8609 20.628 42.3309 24.113 41.8509 27.57C41.6609 28.963 41.1809 30.107 40.3309 31.17C39.9109 31.707 38.8909 32.608 38.7109 32.608C38.6809 32.608 38.6509 32.268 38.6509 31.854V31.098L39.1709 30.478C41.1309 28.13 40.9909 24.85 38.8509 22.698C38.0209 21.86 37.0609 21.368 35.8209 21.141C35.0209 20.993 34.8509 20.993 34.0109 21.131C32.7359 21.339 31.7479 21.833 30.8709 22.701C28.7209 24.831 28.5809 28.128 30.5409 30.478L31.0569 31.098V31.858C31.0569 32.278 31.0239 32.618 30.9829 32.618C30.9429 32.618 30.6529 32.418 30.3429 32.168L30.3009 32.154ZM33.7709 28.071C32.8809 27.657 32.4009 26.876 32.3909 25.858C32.3909 24.943 32.9009 24.145 33.7809 23.678C34.3409 23.384 35.3309 23.384 35.8909 23.68C36.5009 23.997 37.0009 24.612 37.1909 25.254C37.7709 27.226 35.6809 28.954 33.7909 28.071H33.7709Z" fill="#F9F9F9"/>
<path d="M34.9889 28.4597C36.3663 28.4597 37.4829 27.3431 37.4829 25.9657C37.4829 24.5883 36.3663 23.4717 34.9889 23.4717C33.6115 23.4717 32.4949 24.5883 32.4949 25.9657C32.4949 27.3431 33.6115 28.4597 34.9889 28.4597Z" fill="#F9F9F9"/>
<path d="M35.2279 29.4238C35.4009 29.4468 35.7449 29.4918 36.0629 29.5938C36.3829 29.6938 36.6729 29.8508 36.8989 30.0118C37.1189 30.1718 37.2789 30.3378 37.3789 30.5398C37.4789 30.7418 37.5289 30.9818 37.5589 31.3748C37.5789 31.7688 37.5789 32.3148 37.4889 33.3348C37.3989 34.3518 37.2189 35.8428 37.0789 36.7978C36.9389 37.7578 36.8389 38.1778 36.7089 38.4878C36.5789 38.8078 36.4089 39.0178 36.2189 39.1678C36.0289 39.3178 35.8089 39.4078 35.5989 39.4578C35.3889 39.5078 35.1989 39.5078 35.0189 39.5078C34.8389 39.5078 34.6689 39.5078 34.4389 39.4578C34.2089 39.4078 33.9089 39.3178 33.6889 39.1378C33.4589 38.9578 33.3089 38.6978 33.1889 38.3578C33.0689 38.0178 32.9789 37.6078 32.8589 36.7878C32.7389 35.9678 32.5789 34.7478 32.4789 33.8178C32.3789 32.8878 32.3389 32.2478 32.3309 31.8178C32.3209 31.3878 32.3409 31.1748 32.3909 30.9678C32.4409 30.7678 32.5209 30.5778 32.6309 30.4178C32.7409 30.2578 32.8849 30.1178 33.0309 30.0078C33.1739 29.8978 33.3209 29.8178 33.4969 29.7558C33.6709 29.6858 33.8799 29.6258 34.1369 29.5758C34.3969 29.5258 34.6969 29.4758 34.8509 29.4558C35.0049 29.4328 35.0049 29.4328 35.1769 29.4558L35.2279 29.4238Z" fill="#F9F9F9"/>
<path d="M62.8789 22.998V14.4082H64.0156V21.9844H68.2461V22.998H62.8789ZM69.4766 15.6211V14.4082H70.5312V15.6211H69.4766ZM69.4766 22.998V16.7754H70.5312V22.998H69.4766ZM71.7207 21.1406L72.7637 20.9766C72.8223 21.3945 72.9844 21.7148 73.25 21.9375C73.5195 22.1602 73.8945 22.2715 74.375 22.2715C74.8594 22.2715 75.2188 22.1738 75.4531 21.9785C75.6875 21.7793 75.8047 21.5469 75.8047 21.2812C75.8047 21.043 75.7012 20.8555 75.4941 20.7188C75.3496 20.625 74.9902 20.5059 74.416 20.3613C73.6426 20.166 73.1055 19.998 72.8047 19.8574C72.5078 19.7129 72.2812 19.5156 72.125 19.2656C71.9727 19.0117 71.8965 18.7324 71.8965 18.4277C71.8965 18.1504 71.959 17.8945 72.084 17.6602C72.2129 17.4219 72.3867 17.2246 72.6055 17.0684C72.7695 16.9473 72.9922 16.8457 73.2734 16.7637C73.5586 16.6777 73.8633 16.6348 74.1875 16.6348C74.6758 16.6348 75.1035 16.7051 75.4707 16.8457C75.8418 16.9863 76.1152 17.1777 76.291 17.4199C76.4668 17.6582 76.5879 17.9785 76.6543 18.3809L75.623 18.5215C75.5762 18.2012 75.4395 17.9512 75.2129 17.7715C74.9902 17.5918 74.6738 17.502 74.2637 17.502C73.7793 17.502 73.4336 17.582 73.2266 17.7422C73.0195 17.9023 72.916 18.0898 72.916 18.3047C72.916 18.4414 72.959 18.5645 73.0449 18.6738C73.1309 18.7871 73.2656 18.8809 73.4492 18.9551C73.5547 18.9941 73.8652 19.084 74.3809 19.2246C75.127 19.4238 75.6465 19.5879 75.9395 19.7168C76.2363 19.8418 76.4688 20.0254 76.6367 20.2676C76.8047 20.5098 76.8887 20.8105 76.8887 21.1699C76.8887 21.5215 76.7852 21.8535 76.5781 22.166C76.375 22.4746 76.0801 22.7148 75.6934 22.8867C75.3066 23.0547 74.8691 23.1387 74.3809 23.1387C73.5723 23.1387 72.9551 22.9707 72.5293 22.6348C72.1074 22.2988 71.8379 21.8008 71.7207 21.1406ZM80.4453 22.0547L80.5977 22.9863C80.3008 23.0488 80.0352 23.0801 79.8008 23.0801C79.418 23.0801 79.1211 23.0195 78.9102 22.8984C78.6992 22.7773 78.5508 22.6191 78.4648 22.4238C78.3789 22.2246 78.3359 21.8086 78.3359 21.1758V17.5957H77.5625V16.7754H78.3359V15.2344L79.3848 14.6016V16.7754H80.4453V17.5957H79.3848V21.2344C79.3848 21.5352 79.4023 21.7285 79.4375 21.8145C79.4766 21.9004 79.5371 21.9688 79.6191 22.0195C79.7051 22.0703 79.8262 22.0957 79.9824 22.0957C80.0996 22.0957 80.2539 22.082 80.4453 22.0547ZM85.7422 20.9941L86.832 21.1289C86.6602 21.7656 86.3418 22.2598 85.877 22.6113C85.4121 22.9629 84.8184 23.1387 84.0957 23.1387C83.1855 23.1387 82.4629 22.8594 81.9277 22.3008C81.3965 21.7383 81.1309 20.9512 81.1309 19.9395C81.1309 18.8926 81.4004 18.0801 81.9395 17.502C82.4785 16.9238 83.1777 16.6348 84.0371 16.6348C84.8691 16.6348 85.5488 16.918 86.0762 17.4844C86.6035 18.0508 86.8672 18.8477 86.8672 19.875C86.8672 19.9375 86.8652 20.0312 86.8613 20.1562H82.2207C82.2598 20.8398 82.4531 21.3633 82.8008 21.7266C83.1484 22.0898 83.582 22.2715 84.1016 22.2715C84.4883 22.2715 84.8184 22.1699 85.0918 21.9668C85.3652 21.7637 85.582 21.4395 85.7422 20.9941ZM82.2793 19.2891H85.7539C85.707 18.7656 85.5742 18.373 85.3555 18.1113C85.0195 17.7051 84.584 17.502 84.0488 17.502C83.5645 17.502 83.1562 17.6641 82.8242 17.9883C82.4961 18.3125 82.3145 18.7461 82.2793 19.2891ZM88.1621 22.998V16.7754H89.1113V17.6602C89.5684 16.9766 90.2285 16.6348 91.0918 16.6348C91.4668 16.6348 91.8105 16.7031 92.123 16.8398C92.4395 16.9727 92.6758 17.1484 92.832 17.3672C92.9883 17.5859 93.0977 17.8457 93.1602 18.1465C93.1992 18.3418 93.2188 18.6836 93.2188 19.1719V22.998H92.1641V19.2129C92.1641 18.7832 92.123 18.4629 92.041 18.252C91.959 18.0371 91.8125 17.8672 91.6016 17.7422C91.3945 17.6133 91.1504 17.5488 90.8691 17.5488C90.4199 17.5488 90.0312 17.6914 89.7031 17.9766C89.3789 18.2617 89.2168 18.8027 89.2168 19.5996V22.998H88.1621ZM97.7891 19.8867C97.7891 18.7344 98.1094 17.8809 98.75 17.3262C99.2852 16.8652 99.9375 16.6348 100.707 16.6348C101.562 16.6348 102.262 16.916 102.805 17.4785C103.348 18.0371 103.619 18.8105 103.619 19.7988C103.619 20.5996 103.498 21.2305 103.256 21.6914C103.018 22.1484 102.668 22.5039 102.207 22.7578C101.75 23.0117 101.25 23.1387 100.707 23.1387C99.8359 23.1387 99.1309 22.8594 98.5918 22.3008C98.0566 21.7422 97.7891 20.9375 97.7891 19.8867ZM98.873 19.8867C98.873 20.6836 99.0469 21.2812 99.3945 21.6797C99.7422 22.0742 100.18 22.2715 100.707 22.2715C101.23 22.2715 101.666 22.0723 102.014 21.6738C102.361 21.2754 102.535 20.668 102.535 19.8516C102.535 19.082 102.359 18.5 102.008 18.1055C101.66 17.707 101.227 17.5078 100.707 17.5078C100.18 17.5078 99.7422 17.7051 99.3945 18.0996C99.0469 18.4941 98.873 19.0898 98.873 19.8867ZM104.861 22.998V16.7754H105.811V17.6602C106.268 16.9766 106.928 16.6348 107.791 16.6348C108.166 16.6348 108.51 16.7031 108.822 16.8398C109.139 16.9727 109.375 17.1484 109.531 17.3672C109.688 17.5859 109.797 17.8457 109.859 18.1465C109.898 18.3418 109.918 18.6836 109.918 19.1719V22.998H108.863V19.2129C108.863 18.7832 108.822 18.4629 108.74 18.252C108.658 18.0371 108.512 17.8672 108.301 17.7422C108.094 17.6133 107.85 17.5488 107.568 17.5488C107.119 17.5488 106.73 17.6914 106.402 17.9766C106.078 18.2617 105.916 18.8027 105.916 19.5996V22.998H104.861Z" fill="#F9F9F9"/>
<path d="M61.9824 40.998L65.2812 32.4082H66.5059L70.0215 40.998H68.7266L67.7246 38.3965H64.1328L63.1895 40.998H61.9824ZM64.4609 37.4707H67.373L66.4766 35.0918C66.2031 34.3691 66 33.7754 65.8672 33.3105C65.7578 33.8613 65.6035 34.4082 65.4043 34.9512L64.4609 37.4707ZM70.7949 43.3828V34.7754H71.7559V35.584C71.9824 35.2676 72.2383 35.0312 72.5234 34.875C72.8086 34.7148 73.1543 34.6348 73.5605 34.6348C74.0918 34.6348 74.5605 34.7715 74.9668 35.0449C75.373 35.3184 75.6797 35.7051 75.8867 36.2051C76.0938 36.7012 76.1973 37.2461 76.1973 37.8398C76.1973 38.4766 76.082 39.0508 75.8516 39.5625C75.625 40.0703 75.293 40.4609 74.8555 40.7344C74.4219 41.0039 73.9648 41.1387 73.4844 41.1387C73.1328 41.1387 72.8164 41.0645 72.5352 40.916C72.2578 40.7676 72.0293 40.5801 71.8496 40.3535V43.3828H70.7949ZM71.75 37.9219C71.75 38.7227 71.9121 39.3145 72.2363 39.6973C72.5605 40.0801 72.9531 40.2715 73.4141 40.2715C73.8828 40.2715 74.2832 40.0742 74.6152 39.6797C74.9512 39.2812 75.1191 38.666 75.1191 37.834C75.1191 37.041 74.9551 36.4473 74.627 36.0527C74.3027 35.6582 73.9141 35.4609 73.4609 35.4609C73.0117 35.4609 72.6133 35.6719 72.2656 36.0938C71.9219 36.5117 71.75 37.1211 71.75 37.9219ZM77.4746 43.3828V34.7754H78.4355V35.584C78.6621 35.2676 78.918 35.0312 79.2031 34.875C79.4883 34.7148 79.834 34.6348 80.2402 34.6348C80.7715 34.6348 81.2402 34.7715 81.6465 35.0449C82.0527 35.3184 82.3594 35.7051 82.5664 36.2051C82.7734 36.7012 82.877 37.2461 82.877 37.8398C82.877 38.4766 82.7617 39.0508 82.5312 39.5625C82.3047 40.0703 81.9727 40.4609 81.5352 40.7344C81.1016 41.0039 80.6445 41.1387 80.1641 41.1387C79.8125 41.1387 79.4961 41.0645 79.2148 40.916C78.9375 40.7676 78.709 40.5801 78.5293 40.3535V43.3828H77.4746ZM78.4297 37.9219C78.4297 38.7227 78.5918 39.3145 78.916 39.6973C79.2402 40.0801 79.6328 40.2715 80.0938 40.2715C80.5625 40.2715 80.9629 40.0742 81.2949 39.6797C81.6309 39.2812 81.7988 38.666 81.7988 37.834C81.7988 37.041 81.6348 36.4473 81.3066 36.0527C80.9824 35.6582 80.5938 35.4609 80.1406 35.4609C79.6914 35.4609 79.293 35.6719 78.9453 36.0938C78.6016 36.5117 78.4297 37.1211 78.4297 37.9219ZM84.1309 40.998V32.4082H85.1855V40.998H84.1309ZM91.0859 38.9941L92.1758 39.1289C92.0039 39.7656 91.6855 40.2598 91.2207 40.6113C90.7559 40.9629 90.1621 41.1387 89.4395 41.1387C88.5293 41.1387 87.8066 40.8594 87.2715 40.3008C86.7402 39.7383 86.4746 38.9512 86.4746 37.9395C86.4746 36.8926 86.7441 36.0801 87.2832 35.502C87.8223 34.9238 88.5215 34.6348 89.3809 34.6348C90.2129 34.6348 90.8926 34.918 91.4199 35.4844C91.9473 36.0508 92.2109 36.8477 92.2109 37.875C92.2109 37.9375 92.209 38.0312 92.2051 38.1562H87.5645C87.6035 38.8398 87.7969 39.3633 88.1445 39.7266C88.4922 40.0898 88.9258 40.2715 89.4453 40.2715C89.832 40.2715 90.1621 40.1699 90.4355 39.9668C90.709 39.7637 90.9258 39.4395 91.0859 38.9941ZM87.623 37.2891H91.0977C91.0508 36.7656 90.918 36.373 90.6992 36.1113C90.3633 35.7051 89.9277 35.502 89.3926 35.502C88.9082 35.502 88.5 35.6641 88.168 35.9883C87.8398 36.3125 87.6582 36.7461 87.623 37.2891ZM96.9805 40.998V32.4082H100.221C100.791 32.4082 101.227 32.4355 101.527 32.4902C101.949 32.5605 102.303 32.6953 102.588 32.8945C102.873 33.0898 103.102 33.3652 103.273 33.7207C103.449 34.0762 103.537 34.4668 103.537 34.8926C103.537 35.623 103.305 36.2422 102.84 36.75C102.375 37.2539 101.535 37.5059 100.32 37.5059H98.1172V40.998H96.9805ZM98.1172 36.4922H100.338C101.072 36.4922 101.594 36.3555 101.902 36.082C102.211 35.8086 102.365 35.4238 102.365 34.9277C102.365 34.5684 102.273 34.2617 102.09 34.0078C101.91 33.75 101.672 33.5801 101.375 33.498C101.184 33.4473 100.83 33.4219 100.314 33.4219H98.1172V36.4922ZM104.457 37.8867C104.457 36.7344 104.777 35.8809 105.418 35.3262C105.953 34.8652 106.605 34.6348 107.375 34.6348C108.23 34.6348 108.93 34.916 109.473 35.4785C110.016 36.0371 110.287 36.8105 110.287 37.7988C110.287 38.5996 110.166 39.2305 109.924 39.6914C109.686 40.1484 109.336 40.5039 108.875 40.7578C108.418 41.0117 107.918 41.1387 107.375 41.1387C106.504 41.1387 105.799 40.8594 105.26 40.3008C104.725 39.7422 104.457 38.9375 104.457 37.8867ZM105.541 37.8867C105.541 38.6836 105.715 39.2812 106.062 39.6797C106.41 40.0742 106.848 40.2715 107.375 40.2715C107.898 40.2715 108.334 40.0723 108.682 39.6738C109.029 39.2754 109.203 38.668 109.203 37.8516C109.203 37.082 109.027 36.5 108.676 36.1055C108.328 35.707 107.895 35.5078 107.375 35.5078C106.848 35.5078 106.41 35.7051 106.062 36.0996C105.715 36.4941 105.541 37.0898 105.541 37.8867ZM115.566 40.998V40.2129C115.172 40.8301 114.592 41.1387 113.826 41.1387C113.33 41.1387 112.873 41.002 112.455 40.7285C112.041 40.4551 111.719 40.0742 111.488 39.5859C111.262 39.0938 111.148 38.5293 111.148 37.8926C111.148 37.2715 111.252 36.709 111.459 36.2051C111.666 35.6973 111.977 35.3086 112.391 35.0391C112.805 34.7695 113.268 34.6348 113.779 34.6348C114.154 34.6348 114.488 34.7148 114.781 34.875C115.074 35.0312 115.312 35.2363 115.496 35.4902V32.4082H116.545V40.998H115.566ZM112.232 37.8926C112.232 38.6895 112.4 39.2852 112.736 39.6797C113.072 40.0742 113.469 40.2715 113.926 40.2715C114.387 40.2715 114.777 40.084 115.098 39.709C115.422 39.3301 115.584 38.7539 115.584 37.9805C115.584 37.1289 115.42 36.5039 115.092 36.1055C114.764 35.707 114.359 35.5078 113.879 35.5078C113.41 35.5078 113.018 35.6992 112.701 36.082C112.389 36.4648 112.232 37.0684 112.232 37.8926ZM122.27 38.7188L123.307 38.8535C123.193 39.5684 122.902 40.1289 122.434 40.5352C121.969 40.9375 121.396 41.1387 120.717 41.1387C119.865 41.1387 119.18 40.8613 118.66 40.3066C118.145 39.748 117.887 38.9492 117.887 37.9102C117.887 37.2383 117.998 36.6504 118.221 36.1465C118.443 35.6426 118.781 35.2656 119.234 35.0156C119.691 34.7617 120.188 34.6348 120.723 34.6348C121.398 34.6348 121.951 34.8066 122.381 35.1504C122.811 35.4902 123.086 35.9746 123.207 36.6035L122.182 36.7617C122.084 36.3438 121.91 36.0293 121.66 35.8184C121.414 35.6074 121.115 35.502 120.764 35.502C120.232 35.502 119.801 35.6934 119.469 36.0762C119.137 36.4551 118.971 37.0566 118.971 37.8809C118.971 38.7168 119.131 39.3242 119.451 39.7031C119.771 40.082 120.189 40.2715 120.705 40.2715C121.119 40.2715 121.465 40.1445 121.742 39.8906C122.02 39.6367 122.195 39.2461 122.27 38.7188ZM128.27 40.2305C127.879 40.5625 127.502 40.7969 127.139 40.9336C126.779 41.0703 126.393 41.1387 125.979 41.1387C125.295 41.1387 124.77 40.9727 124.402 40.6406C124.035 40.3047 123.852 39.877 123.852 39.3574C123.852 39.0527 123.92 38.7754 124.057 38.5254C124.197 38.2715 124.379 38.0684 124.602 37.916C124.828 37.7637 125.082 37.6484 125.363 37.5703C125.57 37.5156 125.883 37.4629 126.301 37.4121C127.152 37.3105 127.779 37.1895 128.182 37.0488C128.186 36.9043 128.188 36.8125 128.188 36.7734C128.188 36.3438 128.088 36.041 127.889 35.8652C127.619 35.627 127.219 35.5078 126.688 35.5078C126.191 35.5078 125.824 35.5957 125.586 35.7715C125.352 35.9434 125.178 36.25 125.064 36.6914L124.033 36.5508C124.127 36.1094 124.281 35.7539 124.496 35.4844C124.711 35.2109 125.021 35.002 125.428 34.8574C125.834 34.709 126.305 34.6348 126.84 34.6348C127.371 34.6348 127.803 34.6973 128.135 34.8223C128.467 34.9473 128.711 35.1055 128.867 35.2969C129.023 35.4844 129.133 35.7227 129.195 36.0117C129.23 36.1914 129.248 36.5156 129.248 36.9844V38.3906C129.248 39.3711 129.27 39.9922 129.312 40.2539C129.359 40.5117 129.449 40.7598 129.582 40.998H128.48C128.371 40.7793 128.301 40.5234 128.27 40.2305ZM128.182 37.875C127.799 38.0312 127.225 38.1641 126.459 38.2734C126.025 38.3359 125.719 38.4062 125.539 38.4844C125.359 38.5625 125.221 38.6777 125.123 38.8301C125.025 38.9785 124.977 39.1445 124.977 39.3281C124.977 39.6094 125.082 39.8438 125.293 40.0312C125.508 40.2188 125.82 40.3125 126.23 40.3125C126.637 40.3125 126.998 40.2246 127.314 40.0488C127.631 39.8691 127.863 39.625 128.012 39.3164C128.125 39.0781 128.182 38.7266 128.182 38.2617V37.875ZM130.467 39.1406L131.51 38.9766C131.568 39.3945 131.73 39.7148 131.996 39.9375C132.266 40.1602 132.641 40.2715 133.121 40.2715C133.605 40.2715 133.965 40.1738 134.199 39.9785C134.434 39.7793 134.551 39.5469 134.551 39.2812C134.551 39.043 134.447 38.8555 134.24 38.7188C134.096 38.625 133.736 38.5059 133.162 38.3613C132.389 38.166 131.852 37.998 131.551 37.8574C131.254 37.7129 131.027 37.5156 130.871 37.2656C130.719 37.0117 130.643 36.7324 130.643 36.4277C130.643 36.1504 130.705 35.8945 130.83 35.6602C130.959 35.4219 131.133 35.2246 131.352 35.0684C131.516 34.9473 131.738 34.8457 132.02 34.7637C132.305 34.6777 132.609 34.6348 132.934 34.6348C133.422 34.6348 133.85 34.7051 134.217 34.8457C134.588 34.9863 134.861 35.1777 135.037 35.4199C135.213 35.6582 135.334 35.9785 135.4 36.3809L134.369 36.5215C134.322 36.2012 134.186 35.9512 133.959 35.7715C133.736 35.5918 133.42 35.502 133.01 35.502C132.525 35.502 132.18 35.582 131.973 35.7422C131.766 35.9023 131.662 36.0898 131.662 36.3047C131.662 36.4414 131.705 36.5645 131.791 36.6738C131.877 36.7871 132.012 36.8809 132.195 36.9551C132.301 36.9941 132.611 37.084 133.127 37.2246C133.873 37.4238 134.393 37.5879 134.686 37.7168C134.982 37.8418 135.215 38.0254 135.383 38.2676C135.551 38.5098 135.635 38.8105 135.635 39.1699C135.635 39.5215 135.531 39.8535 135.324 40.166C135.121 40.4746 134.826 40.7148 134.439 40.8867C134.053 41.0547 133.615 41.1387 133.127 41.1387C132.318 41.1387 131.701 40.9707 131.275 40.6348C130.854 40.2988 130.584 39.8008 130.467 39.1406ZM139.191 40.0547L139.344 40.9863C139.047 41.0488 138.781 41.0801 138.547 41.0801C138.164 41.0801 137.867 41.0195 137.656 40.8984C137.445 40.7773 137.297 40.6191 137.211 40.4238C137.125 40.2246 137.082 39.8086 137.082 39.1758V35.5957H136.309V34.7754H137.082V33.2344L138.131 32.6016V34.7754H139.191V35.5957H138.131V39.2344C138.131 39.5352 138.148 39.7285 138.184 39.8145C138.223 39.9004 138.283 39.9688 138.365 40.0195C138.451 40.0703 138.572 40.0957 138.729 40.0957C138.846 40.0957 139 40.082 139.191 40.0547ZM139.807 39.1406L140.85 38.9766C140.908 39.3945 141.07 39.7148 141.336 39.9375C141.605 40.1602 141.98 40.2715 142.461 40.2715C142.945 40.2715 143.305 40.1738 143.539 39.9785C143.773 39.7793 143.891 39.5469 143.891 39.2812C143.891 39.043 143.787 38.8555 143.58 38.7188C143.436 38.625 143.076 38.5059 142.502 38.3613C141.729 38.166 141.191 37.998 140.891 37.8574C140.594 37.7129 140.367 37.5156 140.211 37.2656C140.059 37.0117 139.982 36.7324 139.982 36.4277C139.982 36.1504 140.045 35.8945 140.17 35.6602C140.299 35.4219 140.473 35.2246 140.691 35.0684C140.855 34.9473 141.078 34.8457 141.359 34.7637C141.645 34.6777 141.949 34.6348 142.273 34.6348C142.762 34.6348 143.189 34.7051 143.557 34.8457C143.928 34.9863 144.201 35.1777 144.377 35.4199C144.553 35.6582 144.674 35.9785 144.74 36.3809L143.709 36.5215C143.662 36.2012 143.525 35.9512 143.299 35.7715C143.076 35.5918 142.76 35.502 142.35 35.502C141.865 35.502 141.52 35.582 141.312 35.7422C141.105 35.9023 141.002 36.0898 141.002 36.3047C141.002 36.4414 141.045 36.5645 141.131 36.6738C141.217 36.7871 141.352 36.8809 141.535 36.9551C141.641 36.9941 141.951 37.084 142.467 37.2246C143.213 37.4238 143.732 37.5879 144.025 37.7168C144.322 37.8418 144.555 38.0254 144.723 38.2676C144.891 38.5098 144.975 38.8105 144.975 39.1699C144.975 39.5215 144.871 39.8535 144.664 40.166C144.461 40.4746 144.166 40.7148 143.779 40.8867C143.393 41.0547 142.955 41.1387 142.467 41.1387C141.658 41.1387 141.041 40.9707 140.615 40.6348C140.193 40.2988 139.924 39.8008 139.807 39.1406Z" fill="#F9F9F9"/>
<defs>
<linearGradient id="paint0_linear_696_5155" x1="34.969" y1="43.379" x2="34.715" y2="12.998" gradientUnits="userSpaceOnUse">
<stop stop-color="#822CBE"/>
<stop offset="1" stop-color="#D772FB"/>
</linearGradient>
</defs>
</svg>
