<svg width="164" height="56" viewBox="0 0 164 56" fill="none" xmlns="http://www.w3.org/2000/svg">
<rect x="0.5" y="-0.00195312" width="163.5" height="56" rx="12" fill="#040608"/>
<g clip-path="url(#clip0_696_5160)">
<path d="M34.9991 13.0479C27.0156 13.0479 20.5435 19.743 20.5435 28.0018C20.5435 36.2609 27.0156 42.9555 34.9991 42.9555C42.9834 42.9555 49.4549 36.2609 49.4549 28.0018C49.4549 19.7436 42.9834 13.0486 34.9989 13.0486L34.9991 13.0479ZM41.6284 34.6157C41.3694 35.055 40.8136 35.1943 40.389 34.9246C36.9949 32.78 32.7222 32.2943 27.6904 33.4836C27.2055 33.5978 26.7222 33.2836 26.6117 32.7818C26.5007 32.28 26.8033 31.78 27.2894 31.6657C32.796 30.3637 37.5193 30.9246 41.3297 33.3336C41.7544 33.6032 41.889 34.1764 41.6284 34.6157ZM43.3977 30.5434C43.0714 31.0925 42.3775 31.2657 41.8476 30.9282C37.9619 28.457 32.0388 27.7414 27.4429 29.1846C26.8468 29.3709 26.2173 29.0234 26.0364 28.4078C25.8568 27.7912 26.1929 27.1412 26.788 26.9537C32.0378 25.3059 38.5644 26.1041 43.0266 28.9407C43.5565 29.2782 43.7239 29.9961 43.3977 30.5436V30.5434ZM43.5496 26.3034C38.8906 23.4407 31.2039 23.1775 26.7557 24.5741C26.0414 24.7982 25.286 24.3811 25.0695 23.6421C24.8531 22.9028 25.256 22.122 25.9708 21.8973C31.077 20.2937 39.5656 20.6036 44.9295 23.8977C45.5734 24.2921 45.784 25.1505 45.4025 25.8143C45.0227 26.4789 44.1907 26.698 43.5503 26.3034H43.5496Z" fill="#1ED760"/>
</g>
<path d="M62.3789 22.998V14.4082H63.5156V21.9844H67.7461V22.998H62.3789ZM68.9766 15.6211V14.4082H70.0312V15.6211H68.9766ZM68.9766 22.998V16.7754H70.0312V22.998H68.9766ZM71.2207 21.1406L72.2637 20.9766C72.3223 21.3945 72.4844 21.7148 72.75 21.9375C73.0195 22.1602 73.3945 22.2715 73.875 22.2715C74.3594 22.2715 74.7188 22.1738 74.9531 21.9785C75.1875 21.7793 75.3047 21.5469 75.3047 21.2812C75.3047 21.043 75.2012 20.8555 74.9941 20.7188C74.8496 20.625 74.4902 20.5059 73.916 20.3613C73.1426 20.166 72.6055 19.998 72.3047 19.8574C72.0078 19.7129 71.7812 19.5156 71.625 19.2656C71.4727 19.0117 71.3965 18.7324 71.3965 18.4277C71.3965 18.1504 71.459 17.8945 71.584 17.6602C71.7129 17.4219 71.8867 17.2246 72.1055 17.0684C72.2695 16.9473 72.4922 16.8457 72.7734 16.7637C73.0586 16.6777 73.3633 16.6348 73.6875 16.6348C74.1758 16.6348 74.6035 16.7051 74.9707 16.8457C75.3418 16.9863 75.6152 17.1777 75.791 17.4199C75.9668 17.6582 76.0879 17.9785 76.1543 18.3809L75.123 18.5215C75.0762 18.2012 74.9395 17.9512 74.7129 17.7715C74.4902 17.5918 74.1738 17.502 73.7637 17.502C73.2793 17.502 72.9336 17.582 72.7266 17.7422C72.5195 17.9023 72.416 18.0898 72.416 18.3047C72.416 18.4414 72.459 18.5645 72.5449 18.6738C72.6309 18.7871 72.7656 18.8809 72.9492 18.9551C73.0547 18.9941 73.3652 19.084 73.8809 19.2246C74.627 19.4238 75.1465 19.5879 75.4395 19.7168C75.7363 19.8418 75.9688 20.0254 76.1367 20.2676C76.3047 20.5098 76.3887 20.8105 76.3887 21.1699C76.3887 21.5215 76.2852 21.8535 76.0781 22.166C75.875 22.4746 75.5801 22.7148 75.1934 22.8867C74.8066 23.0547 74.3691 23.1387 73.8809 23.1387C73.0723 23.1387 72.4551 22.9707 72.0293 22.6348C71.6074 22.2988 71.3379 21.8008 71.2207 21.1406ZM79.9453 22.0547L80.0977 22.9863C79.8008 23.0488 79.5352 23.0801 79.3008 23.0801C78.918 23.0801 78.6211 23.0195 78.4102 22.8984C78.1992 22.7773 78.0508 22.6191 77.9648 22.4238C77.8789 22.2246 77.8359 21.8086 77.8359 21.1758V17.5957H77.0625V16.7754H77.8359V15.2344L78.8848 14.6016V16.7754H79.9453V17.5957H78.8848V21.2344C78.8848 21.5352 78.9023 21.7285 78.9375 21.8145C78.9766 21.9004 79.0371 21.9688 79.1191 22.0195C79.2051 22.0703 79.3262 22.0957 79.4824 22.0957C79.5996 22.0957 79.7539 22.082 79.9453 22.0547ZM85.2422 20.9941L86.332 21.1289C86.1602 21.7656 85.8418 22.2598 85.377 22.6113C84.9121 22.9629 84.3184 23.1387 83.5957 23.1387C82.6855 23.1387 81.9629 22.8594 81.4277 22.3008C80.8965 21.7383 80.6309 20.9512 80.6309 19.9395C80.6309 18.8926 80.9004 18.0801 81.4395 17.502C81.9785 16.9238 82.6777 16.6348 83.5371 16.6348C84.3691 16.6348 85.0488 16.918 85.5762 17.4844C86.1035 18.0508 86.3672 18.8477 86.3672 19.875C86.3672 19.9375 86.3652 20.0312 86.3613 20.1562H81.7207C81.7598 20.8398 81.9531 21.3633 82.3008 21.7266C82.6484 22.0898 83.082 22.2715 83.6016 22.2715C83.9883 22.2715 84.3184 22.1699 84.5918 21.9668C84.8652 21.7637 85.082 21.4395 85.2422 20.9941ZM81.7793 19.2891H85.2539C85.207 18.7656 85.0742 18.373 84.8555 18.1113C84.5195 17.7051 84.084 17.502 83.5488 17.502C83.0645 17.502 82.6562 17.6641 82.3242 17.9883C81.9961 18.3125 81.8145 18.7461 81.7793 19.2891ZM87.6621 22.998V16.7754H88.6113V17.6602C89.0684 16.9766 89.7285 16.6348 90.5918 16.6348C90.9668 16.6348 91.3105 16.7031 91.623 16.8398C91.9395 16.9727 92.1758 17.1484 92.332 17.3672C92.4883 17.5859 92.5977 17.8457 92.6602 18.1465C92.6992 18.3418 92.7188 18.6836 92.7188 19.1719V22.998H91.6641V19.2129C91.6641 18.7832 91.623 18.4629 91.541 18.252C91.459 18.0371 91.3125 17.8672 91.1016 17.7422C90.8945 17.6133 90.6504 17.5488 90.3691 17.5488C89.9199 17.5488 89.5312 17.6914 89.2031 17.9766C88.8789 18.2617 88.7168 18.8027 88.7168 19.5996V22.998H87.6621ZM97.2891 19.8867C97.2891 18.7344 97.6094 17.8809 98.25 17.3262C98.7852 16.8652 99.4375 16.6348 100.207 16.6348C101.062 16.6348 101.762 16.916 102.305 17.4785C102.848 18.0371 103.119 18.8105 103.119 19.7988C103.119 20.5996 102.998 21.2305 102.756 21.6914C102.518 22.1484 102.168 22.5039 101.707 22.7578C101.25 23.0117 100.75 23.1387 100.207 23.1387C99.3359 23.1387 98.6309 22.8594 98.0918 22.3008C97.5566 21.7422 97.2891 20.9375 97.2891 19.8867ZM98.373 19.8867C98.373 20.6836 98.5469 21.2812 98.8945 21.6797C99.2422 22.0742 99.6797 22.2715 100.207 22.2715C100.73 22.2715 101.166 22.0723 101.514 21.6738C101.861 21.2754 102.035 20.668 102.035 19.8516C102.035 19.082 101.859 18.5 101.508 18.1055C101.16 17.707 100.727 17.5078 100.207 17.5078C99.6797 17.5078 99.2422 17.7051 98.8945 18.0996C98.5469 18.4941 98.373 19.0898 98.373 19.8867ZM104.361 22.998V16.7754H105.311V17.6602C105.768 16.9766 106.428 16.6348 107.291 16.6348C107.666 16.6348 108.01 16.7031 108.322 16.8398C108.639 16.9727 108.875 17.1484 109.031 17.3672C109.188 17.5859 109.297 17.8457 109.359 18.1465C109.398 18.3418 109.418 18.6836 109.418 19.1719V22.998H108.363V19.2129C108.363 18.7832 108.322 18.4629 108.24 18.252C108.158 18.0371 108.012 17.8672 107.801 17.7422C107.594 17.6133 107.35 17.5488 107.068 17.5488C106.619 17.5488 106.23 17.6914 105.902 17.9766C105.578 18.2617 105.416 18.8027 105.416 19.5996V22.998H104.361Z" fill="#F9F9F9"/>
<path d="M62.0391 38.2383L63.1113 38.1445C63.1621 38.5742 63.2793 38.9277 63.4629 39.2051C63.6504 39.4785 63.9395 39.7012 64.3301 39.873C64.7207 40.041 65.1602 40.125 65.6484 40.125C66.082 40.125 66.4648 40.0605 66.7969 39.9316C67.1289 39.8027 67.375 39.627 67.5352 39.4043C67.6992 39.1777 67.7812 38.9316 67.7812 38.666C67.7812 38.3965 67.7031 38.1621 67.5469 37.9629C67.3906 37.7598 67.1328 37.5898 66.7734 37.4531C66.543 37.3633 66.0332 37.2246 65.2441 37.0371C64.4551 36.8457 63.9023 36.666 63.5859 36.498C63.1758 36.2832 62.8691 36.0176 62.666 35.7012C62.4668 35.3809 62.3672 35.0234 62.3672 34.6289C62.3672 34.1953 62.4902 33.791 62.7363 33.416C62.9824 33.0371 63.3418 32.75 63.8145 32.5547C64.2871 32.3594 64.8125 32.2617 65.3906 32.2617C66.0273 32.2617 66.5879 32.3652 67.0723 32.5723C67.5605 32.7754 67.9355 33.0762 68.1973 33.4746C68.459 33.873 68.5996 34.3242 68.6191 34.8281L67.5293 34.9102C67.4707 34.3672 67.2715 33.957 66.9316 33.6797C66.5957 33.4023 66.0977 33.2637 65.4375 33.2637C64.75 33.2637 64.248 33.3906 63.9316 33.6445C63.6191 33.8945 63.4629 34.1973 63.4629 34.5527C63.4629 34.8613 63.5742 35.1152 63.7969 35.3145C64.0156 35.5137 64.5859 35.7188 65.5078 35.9297C66.4336 36.1367 67.0684 36.3184 67.4121 36.4746C67.9121 36.7051 68.2812 36.998 68.5195 37.3535C68.7578 37.7051 68.877 38.1113 68.877 38.5723C68.877 39.0293 68.7461 39.4609 68.4844 39.8672C68.2227 40.2695 67.8457 40.584 67.3535 40.8105C66.8652 41.0332 66.3145 41.1445 65.7012 41.1445C64.9238 41.1445 64.2715 41.0312 63.7441 40.8047C63.2207 40.5781 62.8086 40.2383 62.5078 39.7852C62.2109 39.3281 62.0547 38.8125 62.0391 38.2383ZM70.2949 43.3828V34.7754H71.2559V35.584C71.4824 35.2676 71.7383 35.0312 72.0234 34.875C72.3086 34.7148 72.6543 34.6348 73.0605 34.6348C73.5918 34.6348 74.0605 34.7715 74.4668 35.0449C74.873 35.3184 75.1797 35.7051 75.3867 36.2051C75.5938 36.7012 75.6973 37.2461 75.6973 37.8398C75.6973 38.4766 75.582 39.0508 75.3516 39.5625C75.125 40.0703 74.793 40.4609 74.3555 40.7344C73.9219 41.0039 73.4648 41.1387 72.9844 41.1387C72.6328 41.1387 72.3164 41.0645 72.0352 40.916C71.7578 40.7676 71.5293 40.5801 71.3496 40.3535V43.3828H70.2949ZM71.25 37.9219C71.25 38.7227 71.4121 39.3145 71.7363 39.6973C72.0605 40.0801 72.4531 40.2715 72.9141 40.2715C73.3828 40.2715 73.7832 40.0742 74.1152 39.6797C74.4512 39.2812 74.6191 38.666 74.6191 37.834C74.6191 37.041 74.4551 36.4473 74.127 36.0527C73.8027 35.6582 73.4141 35.4609 72.9609 35.4609C72.5117 35.4609 72.1133 35.6719 71.7656 36.0938C71.4219 36.5117 71.25 37.1211 71.25 37.9219ZM76.582 37.8867C76.582 36.7344 76.9023 35.8809 77.543 35.3262C78.0781 34.8652 78.7305 34.6348 79.5 34.6348C80.3555 34.6348 81.0547 34.916 81.5977 35.4785C82.1406 36.0371 82.4121 36.8105 82.4121 37.7988C82.4121 38.5996 82.291 39.2305 82.0488 39.6914C81.8105 40.1484 81.4609 40.5039 81 40.7578C80.543 41.0117 80.043 41.1387 79.5 41.1387C78.6289 41.1387 77.9238 40.8594 77.3848 40.3008C76.8496 39.7422 76.582 38.9375 76.582 37.8867ZM77.666 37.8867C77.666 38.6836 77.8398 39.2812 78.1875 39.6797C78.5352 40.0742 78.9727 40.2715 79.5 40.2715C80.0234 40.2715 80.459 40.0723 80.8066 39.6738C81.1543 39.2754 81.3281 38.668 81.3281 37.8516C81.3281 37.082 81.1523 36.5 80.8008 36.1055C80.4531 35.707 80.0195 35.5078 79.5 35.5078C78.9727 35.5078 78.5352 35.7051 78.1875 36.0996C77.8398 36.4941 77.666 37.0898 77.666 37.8867ZM85.957 40.0547L86.1094 40.9863C85.8125 41.0488 85.5469 41.0801 85.3125 41.0801C84.9297 41.0801 84.6328 41.0195 84.4219 40.8984C84.2109 40.7773 84.0625 40.6191 83.9766 40.4238C83.8906 40.2246 83.8477 39.8086 83.8477 39.1758V35.5957H83.0742V34.7754H83.8477V33.2344L84.8965 32.6016V34.7754H85.957V35.5957H84.8965V39.2344C84.8965 39.5352 84.9141 39.7285 84.9492 39.8145C84.9883 39.9004 85.0488 39.9688 85.1309 40.0195C85.2168 40.0703 85.3379 40.0957 85.4941 40.0957C85.6113 40.0957 85.7656 40.082 85.957 40.0547ZM87 33.6211V32.4082H88.0547V33.6211H87ZM87 40.998V34.7754H88.0547V40.998H87ZM89.918 40.998V35.5957H88.9863V34.7754H89.918V34.1133C89.918 33.6953 89.9551 33.3848 90.0293 33.1816C90.1309 32.9082 90.3086 32.6875 90.5625 32.5195C90.8203 32.3477 91.1797 32.2617 91.6406 32.2617C91.9375 32.2617 92.2656 32.2969 92.625 32.3672L92.4668 33.2871C92.248 33.248 92.041 33.2285 91.8457 33.2285C91.5254 33.2285 91.2988 33.2969 91.166 33.4336C91.0332 33.5703 90.9668 33.8262 90.9668 34.2012V34.7754H92.1797V35.5957H90.9668V40.998H89.918ZM92.959 43.3945L92.8418 42.4043C93.0723 42.4668 93.2734 42.498 93.4453 42.498C93.6797 42.498 93.8672 42.459 94.0078 42.3809C94.1484 42.3027 94.2637 42.1934 94.3535 42.0527C94.4199 41.9473 94.5273 41.6855 94.6758 41.2676C94.6953 41.209 94.7266 41.123 94.7695 41.0098L92.4082 34.7754H93.5449L94.8398 38.3789C95.0078 38.8359 95.1582 39.3164 95.291 39.8203C95.4121 39.3359 95.5566 38.8633 95.7246 38.4023L97.0547 34.7754H98.1094L95.7422 41.1035C95.4883 41.7871 95.291 42.2578 95.1504 42.5156C94.9629 42.8633 94.748 43.1172 94.5059 43.2773C94.2637 43.4414 93.9746 43.5234 93.6387 43.5234C93.4355 43.5234 93.209 43.4805 92.959 43.3945Z" fill="#F9F9F9"/>
<defs>
<clipPath id="clip0_696_5160">
<rect width="29" height="30" fill="white" transform="translate(20.5 12.998)"/>
</clipPath>
</defs>
</svg>
