<svg width="283" height="29" viewBox="0 0 283 29" fill="none" xmlns="http://www.w3.org/2000/svg">
<path d="M3.06591e-06 27.92L10.68 0.479981H17.24L27.96 27.92H22.32L20.12 22.08H7.56L5.36 27.92H3.06591e-06ZM9.2 17.68H18.44L15.68 10.24C15.5733 9.97332 15.44 9.63998 15.28 9.23998C15.1467 8.81332 15 8.35998 14.84 7.87998C14.68 7.37331 14.52 6.86665 14.36 6.35998C14.2 5.85332 14.0533 5.39998 13.92 4.99998H13.72C13.56 5.53332 13.36 6.14665 13.12 6.83998C12.9067 7.53331 12.6933 8.18665 12.48 8.79998C12.2667 9.41332 12.0933 9.89332 11.96 10.24L9.2 17.68ZM31.1994 27.92V0.479981H45.6394C47.666 0.479981 49.346 0.826648 50.6794 1.51998C52.0127 2.21332 53.0127 3.19998 53.6794 4.47998C54.346 5.75998 54.6794 7.26665 54.6794 8.99998C54.6794 10.7866 54.2794 12.3733 53.4794 13.76C52.6794 15.12 51.506 16.1466 49.9594 16.84L55.6394 27.92H49.9594L44.9194 17.72H36.3994V27.92H31.1994ZM36.3994 13.36H45.2394C46.5727 13.36 47.5994 12.9733 48.3194 12.2C49.0394 11.4266 49.3994 10.36 49.3994 8.99998C49.3994 8.11998 49.2394 7.38665 48.9194 6.79998C48.5994 6.18665 48.1327 5.71998 47.5194 5.39998C46.906 5.07998 46.146 4.91998 45.2394 4.91998H36.3994V13.36ZM71.7559 28.4C68.9559 28.4 66.5559 27.9066 64.5559 26.92C62.5826 25.9333 61.0626 24.4 59.9959 22.32C58.9559 20.2133 58.4359 17.5066 58.4359 14.2C58.4359 9.37331 59.6093 5.79998 61.9559 3.47998C64.3026 1.15998 67.5693 -1.7643e-05 71.7559 -1.7643e-05C74.0226 -1.7643e-05 76.0626 0.386649 77.8759 1.15998C79.7159 1.93331 81.1693 3.10665 82.2359 4.67998C83.3293 6.22665 83.8759 8.19998 83.8759 10.6H78.5559C78.5559 9.26665 78.2626 8.14665 77.6759 7.23998C77.1159 6.30665 76.3293 5.59998 75.3159 5.11998C74.3026 4.63998 73.1426 4.39998 71.8359 4.39998C70.0226 4.39998 68.5159 4.75998 67.3159 5.47998C66.1159 6.17331 65.2226 7.21332 64.6359 8.59998C64.0759 9.98665 63.7959 11.7066 63.7959 13.76V14.64C63.7959 16.72 64.0759 18.4533 64.6359 19.84C65.2226 21.2266 66.1026 22.2666 67.2759 22.96C68.4759 23.6533 69.9959 24 71.8359 24C73.2226 24 74.4359 23.7733 75.4759 23.32C76.5159 22.84 77.3159 22.1466 77.8759 21.24C78.4626 20.3066 78.7559 19.1733 78.7559 17.84H83.8759C83.8759 20.24 83.3426 22.2266 82.2759 23.8C81.2093 25.3466 79.7559 26.5066 77.9159 27.28C76.1026 28.0266 74.0493 28.4 71.7559 28.4ZM88.5041 27.92V0.479981H93.7041V11.64H106.504V0.479981H111.704V27.92H106.504V16.12H93.7041V27.92H88.5041ZM125.809 27.92V0.479981H147.209V4.91998H131.009V11.68H145.449V16.12H131.009V23.48H147.449V27.92H125.809ZM150.084 27.92L159.964 13.52L151.004 0.479981H157.364L163.444 9.63998H163.644L169.724 0.479981H175.684L166.724 13.48L176.644 27.92H170.324L163.284 17.32H163.044L156.084 27.92H150.084ZM180.106 27.92V0.479981H193.866C195.892 0.479981 197.559 0.839981 198.866 1.55998C200.199 2.27998 201.199 3.29332 201.866 4.59998C202.532 5.90665 202.866 7.46665 202.866 9.27998C202.866 11.0666 202.519 12.6266 201.826 13.96C201.132 15.2933 200.092 16.3333 198.706 17.08C197.346 17.8 195.639 18.16 193.586 18.16H185.306V27.92H180.106ZM185.306 13.72H193.426C194.759 13.72 195.786 13.3333 196.506 12.56C197.252 11.76 197.626 10.6666 197.626 9.27998C197.626 8.34665 197.466 7.55998 197.146 6.91998C196.826 6.27998 196.359 5.78665 195.746 5.43998C195.132 5.09331 194.359 4.91998 193.426 4.91998H185.306V13.72ZM206.903 27.92V0.479981H228.303V4.91998H212.103V11.68H226.543V16.12H212.103V23.48H228.543V27.92H206.903ZM233.778 27.92V0.479981H248.218C250.244 0.479981 251.924 0.826648 253.258 1.51998C254.591 2.21332 255.591 3.19998 256.258 4.47998C256.924 5.75998 257.258 7.26665 257.258 8.99998C257.258 10.7866 256.858 12.3733 256.058 13.76C255.258 15.12 254.084 16.1466 252.538 16.84L258.218 27.92H252.538L247.498 17.72H238.978V27.92H233.778ZM238.978 13.36H247.818C249.151 13.36 250.178 12.9733 250.898 12.2C251.618 11.4266 251.978 10.36 251.978 8.99998C251.978 8.11998 251.818 7.38665 251.498 6.79998C251.178 6.18665 250.711 5.71998 250.098 5.39998C249.484 5.07998 248.724 4.91998 247.818 4.91998H238.978V13.36ZM268.388 27.92V4.95998H259.628V0.479981H282.388V4.95998H273.588V27.92H268.388Z" fill="white"/>
</svg>
