<svg width="60" height="60" viewBox="0 0 60 60" fill="none" xmlns="http://www.w3.org/2000/svg">
<path d="M0 30C0 13.4315 13.4315 0 30 0C46.5685 0 60 13.4315 60 30C60 46.5685 46.5685 60 30 60C13.4315 60 0 46.5685 0 30Z" fill="white"/>
<g clip-path="url(#clip0_1315_3790)">
<path d="M29.9979 14.0527C21.1886 14.0527 14.0469 21.1943 14.0469 30.0036C14.0469 38.8133 21.1886 45.9542 29.9979 45.9542C38.8082 45.9542 45.9492 38.8133 45.9492 30.0036C45.9492 21.1948 38.8082 14.0535 29.9977 14.0535L29.9979 14.0527ZM37.313 37.0584C37.0273 37.527 36.4139 37.6756 35.9454 37.388C32.2002 35.1003 27.4855 34.5823 21.9332 35.8508C21.3981 35.9727 20.8648 35.6375 20.7429 35.1023C20.6204 34.567 20.9543 34.0337 21.4907 33.9118C27.5669 32.523 32.7789 33.1213 36.9834 35.6908C37.452 35.9784 37.6006 36.5899 37.313 37.0584ZM39.2653 32.7146C38.9053 33.3003 38.1396 33.4851 37.5549 33.1251C33.2673 30.4891 26.7314 29.7259 21.66 31.2653C21.0023 31.464 20.3076 31.0933 20.108 30.4367C19.9099 29.779 20.2808 29.0857 20.9374 28.8857C26.7303 27.128 33.932 27.9794 38.8558 31.0051C39.4406 31.3651 39.6253 32.1308 39.2653 32.7148V32.7146ZM39.433 28.192C34.292 25.1384 25.8101 24.8577 20.9017 26.3474C20.1135 26.5864 19.28 26.1415 19.0412 25.3533C18.8023 24.5647 19.2469 23.7318 20.0356 23.4922C25.6701 21.7817 35.0368 22.1122 40.9556 25.6259C41.6661 26.0466 41.8985 26.9623 41.4775 27.6703C41.0585 28.3792 40.1404 28.6129 39.4337 28.192H39.433Z" fill="#1ED760"/>
</g>
<defs>
<clipPath id="clip0_1315_3790">
<rect width="32" height="32" fill="white" transform="translate(14 14)"/>
</clipPath>
</defs>
</svg>
