<svg width="60" height="60" viewBox="0 0 60 60" fill="none" xmlns="http://www.w3.org/2000/svg">
<path d="M0 30C0 13.4315 13.4315 0 30 0C46.5685 0 60 13.4315 60 30C60 46.5685 46.5685 60 30 60C13.4315 60 0 46.5685 0 30Z" fill="white"/>
<g clip-path="url(#clip0_1315_3787)">
<path d="M38.6035 14H21.3965C17.5877 14 14.5 17.1873 14.5 21.1189V38.8811C14.5 42.8127 17.5877 46 21.3965 46H38.6035C42.4123 46 45.5 42.8127 45.5 38.8811V21.1189C45.5 17.1873 42.4123 14 38.6035 14Z" fill="url(#paint0_linear_1315_3787)"/>
<path d="M29.052 42.0148C28.1272 41.6734 27.9288 41.2094 27.5495 38.4905C27.1083 35.33 27.0122 33.3737 27.2674 32.754C27.6064 31.9326 28.526 31.4665 29.8125 31.4612C31.0887 31.4558 32.0166 31.9262 32.3576 32.754C32.6139 33.3726 32.5178 35.33 32.0766 38.4905C31.7769 40.6985 31.6116 41.2563 31.1982 41.6318C30.6299 42.1513 29.8239 42.2953 29.0592 42.0158L29.052 42.0148ZM25.1016 38.7721C21.9086 37.1508 19.8626 34.4073 19.1186 30.7572C18.9326 29.8153 18.9016 27.5678 19.0772 26.7038C19.5422 24.3838 20.4309 22.5694 21.9086 20.9652C24.0372 18.6484 26.7756 17.4238 29.8239 17.4238C32.8412 17.4238 35.5692 18.626 37.6462 20.8734C39.2272 22.5694 40.1159 24.3646 40.5706 26.7294C40.7256 27.5166 40.7256 29.6628 40.5809 30.5481C40.1056 33.347 38.5969 35.8964 36.3959 37.6094C35.6106 38.2217 33.6886 39.2905 33.3786 39.2905C33.2649 39.2905 33.2546 39.1689 33.3062 38.6772C33.3992 37.8878 33.4922 37.7236 33.9262 37.5358C34.6186 37.2372 35.7966 36.371 36.5199 35.6222C37.7702 34.3422 38.6899 32.6676 39.1136 30.9076C39.3822 29.8089 39.3512 27.3662 39.0516 26.2356C38.1112 22.6409 35.2696 19.8462 31.7872 19.0996C30.7746 18.8862 28.9352 18.8862 27.9122 19.0996C24.3886 19.8462 21.4746 22.7796 20.5859 26.4702C20.3482 27.4729 20.3482 29.9156 20.5859 30.9182C21.1749 33.3609 22.7042 35.6009 24.7089 36.9342C25.1016 37.2009 25.5769 37.4782 25.7732 37.5636C26.2072 37.7556 26.3002 37.9156 26.3829 38.7049C26.4346 39.1849 26.4242 39.3236 26.3106 39.3236C26.2382 39.3236 25.7112 39.0889 25.1532 38.8116L25.1016 38.7721ZM25.1429 34.4329C24.0682 33.5476 23.1176 31.9774 22.7249 30.4372C22.4872 29.507 22.4872 27.7385 22.7352 26.8105C23.3862 24.306 25.1739 22.3646 27.6539 21.4526C28.5012 21.1433 30.3819 21.074 31.4256 21.3118C35.0216 22.1385 37.5739 25.8558 37.0779 29.5433C36.8816 31.0292 36.3856 32.2494 35.5072 33.3833C35.0732 33.9561 34.0192 34.9172 33.8332 34.9172C33.8022 34.9172 33.7712 34.5545 33.7712 34.1129V33.3065L34.3086 32.6452C36.3339 30.1406 36.1892 26.642 33.9779 24.3465C33.1202 23.4526 32.1282 22.9278 30.8469 22.6857C30.0202 22.5278 29.8446 22.5278 28.9766 22.675C27.6591 22.8969 26.6381 23.4238 25.7319 24.3497C23.5102 26.6217 23.3656 30.1385 25.3909 32.6452L25.9241 33.3065V34.1172C25.9241 34.5652 25.89 34.9278 25.8476 34.9278C25.8063 34.9278 25.5066 34.7145 25.1863 34.4478L25.1429 34.4329ZM28.7286 30.0777C27.8089 29.6361 27.3129 28.803 27.3026 27.7172C27.3026 26.7412 27.8296 25.89 28.7389 25.3918C29.3176 25.0782 30.3406 25.0782 30.9192 25.394C31.5496 25.7321 32.0662 26.3881 32.2626 27.0729C32.8619 29.1764 30.7022 31.0196 28.7492 30.0777H28.7286Z" fill="#F6F6F6"/>
<path d="M29.9873 30.4914C31.4106 30.4914 32.5644 29.3004 32.5644 27.8312C32.5644 26.3619 31.4106 25.1709 29.9873 25.1709C28.564 25.1709 27.4102 26.3619 27.4102 27.8312C27.4102 29.3004 28.564 30.4914 29.9873 30.4914Z" fill="#F6F6F6"/>
<path d="M30.2344 31.5225C30.4132 31.547 30.7687 31.595 31.0973 31.7038C31.4279 31.8105 31.7276 31.9779 31.9611 32.1497C32.1885 32.3203 32.3538 32.4974 32.4571 32.7129C32.5605 32.9283 32.6121 33.1843 32.6431 33.6035C32.6638 34.0238 32.6638 34.6062 32.5708 35.6942C32.4778 36.779 32.2918 38.3694 32.1471 39.388C32.0025 40.412 31.8991 40.86 31.7648 41.1907C31.6305 41.532 31.4548 41.756 31.2585 41.916C31.0621 42.076 30.8348 42.172 30.6178 42.2254C30.4008 42.2787 30.2045 42.2787 30.0185 42.2787C29.8325 42.2787 29.6568 42.2787 29.4191 42.2254C29.1815 42.172 28.8715 42.076 28.6441 41.884C28.4065 41.692 28.2515 41.4147 28.1275 41.052C28.0035 40.6894 27.9105 40.252 27.7865 39.3774C27.6625 38.5027 27.4971 37.2014 27.3938 36.2094C27.2905 35.2174 27.2491 34.5347 27.2409 34.0761C27.2305 33.6174 27.2512 33.3902 27.3029 33.1694C27.3545 32.9561 27.4372 32.7534 27.5509 32.5827C27.6645 32.4121 27.8133 32.2627 27.9642 32.1454C28.112 32.0281 28.2639 31.9427 28.4457 31.8766C28.6255 31.8019 28.8415 31.7379 29.1071 31.6846C29.3757 31.6313 29.6857 31.5779 29.8449 31.5566C30.004 31.5321 30.004 31.5321 30.1817 31.5566L30.2344 31.5225Z" fill="#F6F6F6"/>
</g>
<defs>
<linearGradient id="paint0_linear_1315_3787" x1="29.968" y1="46.4064" x2="29.6883" y2="14.0001" gradientUnits="userSpaceOnUse">
<stop stop-color="#822CBE"/>
<stop offset="1" stop-color="#D772FB"/>
</linearGradient>
<clipPath id="clip0_1315_3787">
<rect width="31" height="32" fill="white" transform="translate(14.5 14)"/>
</clipPath>
</defs>
</svg>
