<svg width="50" height="50" viewBox="0 0 50 50" fill="none" xmlns="http://www.w3.org/2000/svg">
<rect x="0.401653" y="-0.401653" width="49.1967" height="49.1967" rx="24.5983" transform="matrix(1 0 0 -1 -4.78807e-08 49.1967)" fill="white"/>
<rect x="0.401653" y="-0.401653" width="49.1967" height="49.1967" rx="24.5983" transform="matrix(1 0 0 -1 -4.78807e-08 49.1967)" stroke="url(#paint0_linear_1653_362)" stroke-width="0.803305"/>
<path fill-rule="evenodd" clip-rule="evenodd" d="M36.4686 16.97L19.462 14.2289L19.0055 16.6119L28.0263 18.0658C29.4456 18.2946 29.8675 20.1331 28.6898 20.9578L12.8469 32.0511L14.2179 34.0091L33.294 20.6519L30.8324 33.5024L33.2278 33.8885L36.4686 16.97Z" fill="url(#paint1_linear_1653_362)"/>
<defs>
<linearGradient id="paint0_linear_1653_362" x1="42.5" y1="-0.312508" x2="-0.0622036" y2="6.28628" gradientUnits="userSpaceOnUse">
<stop stop-color="#0D5959"/>
<stop offset="1" stop-color="#092327"/>
</linearGradient>
<linearGradient id="paint1_linear_1653_362" x1="31.794" y1="9.98872" x2="41.3476" y2="28.3957" gradientUnits="userSpaceOnUse">
<stop stop-color="#0D5959"/>
<stop offset="1" stop-color="#092327"/>
</linearGradient>
</defs>
</svg>
