<svg width="283" height="29" viewBox="0 0 283 29" fill="none" xmlns="http://www.w3.org/2000/svg">
<path d="M0.000781264 27.9199L10.6808 0.47992H17.2408L27.9608 27.9199H22.3208L20.1208 22.0799H7.56078L5.36078 27.9199H0.000781264ZM9.20078 17.6799H18.4408L15.6808 10.2399C15.5741 9.97325 15.4408 9.63992 15.2808 9.23992C15.1474 8.81325 15.0008 8.35992 14.8408 7.87992C14.6808 7.37325 14.5208 6.86659 14.3608 6.35992C14.2008 5.85325 14.0541 5.39992 13.9208 4.99992H13.7208C13.5608 5.53325 13.3608 6.14659 13.1208 6.83992C12.9074 7.53325 12.6941 8.18659 12.4808 8.79992C12.2674 9.41325 12.0941 9.89325 11.9608 10.2399L9.20078 17.6799ZM31.2002 27.9199V0.47992H45.6402C47.6668 0.47992 49.3468 0.826587 50.6802 1.51992C52.0135 2.21325 53.0135 3.19992 53.6802 4.47992C54.3468 5.75992 54.6802 7.26659 54.6802 8.99992C54.6802 10.7866 54.2802 12.3733 53.4802 13.7599C52.6802 15.1199 51.5068 16.1466 49.9602 16.8399L55.6402 27.9199H49.9602L44.9202 17.7199H36.4002V27.9199H31.2002ZM36.4002 13.3599H45.2402C46.5735 13.3599 47.6002 12.9733 48.3202 12.1999C49.0402 11.4266 49.4002 10.3599 49.4002 8.99992C49.4002 8.11992 49.2402 7.38659 48.9202 6.79992C48.6002 6.18659 48.1335 5.71992 47.5202 5.39992C46.9068 5.07992 46.1468 4.91992 45.2402 4.91992H36.4002V13.3599ZM71.7567 28.3999C68.9567 28.3999 66.5567 27.9066 64.5567 26.9199C62.5834 25.9333 61.0634 24.3999 59.9967 22.3199C58.9567 20.2133 58.4367 17.5066 58.4367 14.1999C58.4367 9.37325 59.6101 5.79992 61.9567 3.47992C64.3034 1.15992 67.5701 -7.86781e-05 71.7567 -7.86781e-05C74.0234 -7.86781e-05 76.0634 0.386588 77.8767 1.15992C79.7167 1.93325 81.1701 3.10659 82.2367 4.67992C83.3301 6.22659 83.8767 8.19992 83.8767 10.5999H78.5567C78.5567 9.26659 78.2634 8.14659 77.6767 7.23992C77.1167 6.30659 76.3301 5.59992 75.3167 5.11992C74.3034 4.63992 73.1434 4.39992 71.8367 4.39992C70.0234 4.39992 68.5167 4.75992 67.3167 5.47992C66.1167 6.17325 65.2234 7.21325 64.6367 8.59992C64.0767 9.98659 63.7967 11.7066 63.7967 13.7599V14.6399C63.7967 16.7199 64.0767 18.4533 64.6367 19.8399C65.2234 21.2266 66.1034 22.2666 67.2767 22.9599C68.4767 23.6533 69.9967 23.9999 71.8367 23.9999C73.2234 23.9999 74.4367 23.7733 75.4767 23.3199C76.5167 22.8399 77.3167 22.1466 77.8767 21.2399C78.4634 20.3066 78.7567 19.1733 78.7567 17.8399H83.8767C83.8767 20.2399 83.3434 22.2266 82.2767 23.7999C81.2101 25.3466 79.7567 26.5066 77.9167 27.2799C76.1034 28.0266 74.0501 28.3999 71.7567 28.3999ZM88.5048 27.9199V0.47992H93.7048V11.6399H106.505V0.47992H111.705V27.9199H106.505V16.1199H93.7048V27.9199H88.5048ZM125.81 27.9199V0.47992H147.21V4.91992H131.01V11.6799H145.45V16.1199H131.01V23.4799H147.45V27.9199H125.81ZM150.085 27.9199L159.965 13.5199L151.005 0.47992H157.365L163.445 9.63992H163.645L169.725 0.47992H175.685L166.725 13.4799L176.645 27.9199H170.325L163.285 17.3199H163.045L156.085 27.9199H150.085ZM180.106 27.9199V0.47992H193.866C195.893 0.47992 197.56 0.83992 198.866 1.55992C200.2 2.27992 201.2 3.29325 201.866 4.59992C202.533 5.90659 202.866 7.46659 202.866 9.27992C202.866 11.0666 202.52 12.6266 201.826 13.9599C201.133 15.2933 200.093 16.3333 198.706 17.0799C197.346 17.7999 195.64 18.1599 193.586 18.1599H185.306V27.9199H180.106ZM185.306 13.7199H193.426C194.76 13.7199 195.786 13.3333 196.506 12.5599C197.253 11.7599 197.626 10.6666 197.626 9.27992C197.626 8.34659 197.466 7.55992 197.146 6.91992C196.826 6.27992 196.36 5.78659 195.746 5.43992C195.133 5.09325 194.36 4.91992 193.426 4.91992H185.306V13.7199ZM206.903 27.9199V0.47992H228.303V4.91992H212.103V11.6799H226.543V16.1199H212.103V23.4799H228.543V27.9199H206.903ZM233.778 27.9199V0.47992H248.218C250.245 0.47992 251.925 0.826587 253.258 1.51992C254.592 2.21325 255.592 3.19992 256.258 4.47992C256.925 5.75992 257.258 7.26659 257.258 8.99992C257.258 10.7866 256.858 12.3733 256.058 13.7599C255.258 15.1199 254.085 16.1466 252.538 16.8399L258.218 27.9199H252.538L247.498 17.7199H238.978V27.9199H233.778ZM238.978 13.3599H247.818C249.152 13.3599 250.178 12.9733 250.898 12.1999C251.618 11.4266 251.978 10.3599 251.978 8.99992C251.978 8.11992 251.818 7.38659 251.498 6.79992C251.178 6.18659 250.712 5.71992 250.098 5.39992C249.485 5.07992 248.725 4.91992 247.818 4.91992H238.978V13.3599ZM268.389 27.9199V4.95992H259.629V0.47992H282.389V4.95992H273.589V27.9199H268.389Z" fill="#040608"/>
</svg>
