<svg width="283" height="29" viewBox="0 0 283 29" fill="none" xmlns="http://www.w3.org/2000/svg">
<path d="M0.2 28L10.88 0.559998H17.44L28.16 28H22.52L20.32 22.16H7.76L5.56 28H0.2ZM9.4 17.76H18.64L15.88 10.32C15.7733 10.0533 15.64 9.72 15.48 9.32C15.3467 8.89333 15.2 8.44 15.04 7.96C14.88 7.45333 14.72 6.94667 14.56 6.44C14.4 5.93333 14.2533 5.48 14.12 5.08H13.92C13.76 5.61333 13.56 6.22667 13.32 6.92C13.1067 7.61333 12.8933 8.26667 12.68 8.88C12.4667 9.49333 12.2933 9.97333 12.16 10.32L9.4 17.76ZM31.3994 28V0.559998H45.8394C47.866 0.559998 49.546 0.906665 50.8794 1.6C52.2127 2.29333 53.2127 3.28 53.8794 4.56C54.546 5.84 54.8794 7.34667 54.8794 9.08C54.8794 10.8667 54.4794 12.4533 53.6794 13.84C52.8794 15.2 51.706 16.2267 50.1594 16.92L55.8394 28H50.1594L45.1194 17.8H36.5994V28H31.3994ZM36.5994 13.44H45.4394C46.7727 13.44 47.7994 13.0533 48.5194 12.28C49.2394 11.5067 49.5994 10.44 49.5994 9.08C49.5994 8.2 49.4394 7.46667 49.1194 6.88C48.7994 6.26667 48.3327 5.8 47.7194 5.48C47.106 5.16 46.346 5 45.4394 5H36.5994V13.44ZM71.9559 28.48C69.1559 28.48 66.7559 27.9867 64.7559 27C62.7826 26.0133 61.2626 24.48 60.1959 22.4C59.1559 20.2933 58.6359 17.5867 58.6359 14.28C58.6359 9.45333 59.8093 5.88 62.1559 3.56C64.5026 1.24 67.7693 0.0799994 71.9559 0.0799994C74.2226 0.0799994 76.2626 0.466666 78.0759 1.24C79.9159 2.01333 81.3693 3.18667 82.4359 4.76C83.5293 6.30667 84.0759 8.28 84.0759 10.68H78.7559C78.7559 9.34667 78.4626 8.22667 77.8759 7.32C77.3159 6.38667 76.5293 5.68 75.5159 5.2C74.5026 4.72 73.3426 4.48 72.0359 4.48C70.2226 4.48 68.7159 4.84 67.5159 5.56C66.3159 6.25333 65.4226 7.29333 64.8359 8.68C64.2759 10.0667 63.9959 11.7867 63.9959 13.84V14.72C63.9959 16.8 64.2759 18.5333 64.8359 19.92C65.4226 21.3067 66.3026 22.3467 67.4759 23.04C68.6759 23.7333 70.1959 24.08 72.0359 24.08C73.4226 24.08 74.6359 23.8533 75.6759 23.4C76.7159 22.92 77.5159 22.2267 78.0759 21.32C78.6626 20.3867 78.9559 19.2533 78.9559 17.92H84.0759C84.0759 20.32 83.5426 22.3067 82.4759 23.88C81.4093 25.4267 79.9559 26.5867 78.1159 27.36C76.3026 28.1067 74.2493 28.48 71.9559 28.48ZM88.7041 28V0.559998H93.9041V11.72H106.704V0.559998H111.904V28H106.704V16.2H93.9041V28H88.7041ZM126.009 28V0.559998H147.409V5H131.209V11.76H145.649V16.2H131.209V23.56H147.649V28H126.009ZM150.284 28L160.164 13.6L151.204 0.559998H157.564L163.644 9.72H163.844L169.924 0.559998H175.884L166.924 13.56L176.844 28H170.524L163.484 17.4H163.244L156.284 28H150.284ZM180.306 28V0.559998H194.066C196.092 0.559998 197.759 0.919998 199.066 1.64C200.399 2.36 201.399 3.37333 202.066 4.68C202.732 5.98667 203.066 7.54667 203.066 9.36C203.066 11.1467 202.719 12.7067 202.026 14.04C201.332 15.3733 200.292 16.4133 198.906 17.16C197.546 17.88 195.839 18.24 193.786 18.24H185.506V28H180.306ZM185.506 13.8H193.626C194.959 13.8 195.986 13.4133 196.706 12.64C197.452 11.84 197.826 10.7467 197.826 9.36C197.826 8.42667 197.666 7.64 197.346 7C197.026 6.36 196.559 5.86667 195.946 5.52C195.332 5.17333 194.559 5 193.626 5H185.506V13.8ZM207.103 28V0.559998H228.503V5H212.303V11.76H226.743V16.2H212.303V23.56H228.743V28H207.103ZM233.978 28V0.559998H248.418C250.444 0.559998 252.124 0.906665 253.458 1.6C254.791 2.29333 255.791 3.28 256.458 4.56C257.124 5.84 257.458 7.34667 257.458 9.08C257.458 10.8667 257.058 12.4533 256.258 13.84C255.458 15.2 254.284 16.2267 252.738 16.92L258.418 28H252.738L247.698 17.8H239.178V28H233.978ZM239.178 13.44H248.018C249.351 13.44 250.378 13.0533 251.098 12.28C251.818 11.5067 252.178 10.44 252.178 9.08C252.178 8.2 252.018 7.46667 251.698 6.88C251.378 6.26667 250.911 5.8 250.298 5.48C249.684 5.16 248.924 5 248.018 5H239.178V13.44ZM268.588 28V5.04H259.828V0.559998H282.588V5.04H273.788V28H268.588Z" fill="#F6F6F6"/>
</svg>
